# xmcd
#
# Track frame offsets:
# 150
# 15580
# 37770
# 53589
# 71804
# 88023
# 104863
# 130255
# 150238
# 168990
# 190570
# 206810
# 223065
# 240235
#
# Disc length: 3441 seconds
#
#
# Revision: 5
# Processed by: cddbd v1.5.1PL0 Copyright (c) Steve Scherf et al.
# Submitted via: FreeRIP 2.94 
#
DISCID=b50d6f0e
DTITLE=Chitãozinho and Xororó - O melhor de Chitãozinho and Xororó
DYEAR=1900
DGENRE=Country
TTITLE0=Pura emoção
TTITLE1=Evidências
TTITLE2=Bailão de Peão
TTITLE3=Brincar de ser feliz
TTITLE4=Coração Sertanejo
TTITLE5=Feito eu
TTITLE6=Caminhoneiro
TTITLE7=Página virada
TTITLE8=Nuvem de Lagrimas
TTITLE9=O homem quando ama
TTITLE10=Pode ser pra valer
TTITLE11=Pagina de Amigos
TTITLE12=Vez em quando vem me ver
TTITLE13=Pura emoção (Lenta)
EXTD=Escrito por Rodrigo Tapia. ID3G: 2
EXTT0=
EXTT1=
EXTT2=
EXTT3=
EXTT4=
EXTT5=
EXTT6=
EXTT7=
EXTT8=
EXTT9=
EXTT10=
EXTT11=
EXTT12=
EXTT13=
PLAYORDER=
